{
    "asset": {
        "generator": "COLLADA2GLTF",
        "version": "2.0"
    },
    "scenes": [
        {
            "nodes": [
                0
            ]
        }
    ],
    "scene": 0,
    "nodes": [
        {
            "children": [
                1
            ],
            "matrix": [
                1.0,
                0.0,
                0.0,
                0.0,
                0.0,
                0.0,
                -1.0,
                0.0,
                0.0,
                1.0,
                0.0,
                0.0,
                0.0,
                0.0,
                0.0,
                1.0
            ],
            "name": "Z_UP"
        },
        {
            "mesh": 0,
            "name": "31LvFAnQ57CwGTbPyXoFHl"
        }
    ],
    "meshes": [
        {
            "primitives": [
                {
                    "attributes": {
                        "NORMAL": 1,
                        "POSITION": 2,
                        "TEXCOORD_0": 3,
                        "TEXCOORD_1": 4
                    },
                    "indices": 0,
                    "mode": 4,
                    "material": 0
                }
            ],
            "name": "representation-3145030"
        }
    ],
    "accessors": [
        {
            "bufferView": 0,
            "byteOffset": 0,
            "componentType": 5123,
            "count": 330,
            "max": [
                281
            ],
            "min": [
                0
            ],
            "type": "SCALAR"
        },
        {
            "bufferView": 1,
            "byteOffset": 0,
            "componentType": 5126,
            "count": 282,
            "max": [
                0.12887999415397645,
                0.0643635019659996,
                1.0
            ],
            "min": [
                -0.4390389919281006,
                -0.3269140124320984,
                0.8830530047416687
            ],
            "type": "VEC3"
        },
        {
            "bufferView": 1,
            "byteOffset": 3384,
            "componentType": 5126,
            "count": 282,
            "max": [
                37.339500427246097,
                34.73889923095703,
                0.0
            ],
            "min": [
                -35.00960159301758,
                -34.56269836425781,
                -5.196829795837402
            ],
            "type": "VEC3"
        },
        {
            "bufferView": 2,
            "byteOffset": 0,
            "componentType": 5126,
            "count": 282,
            "max": [
                37.339500427246097,
                35.56269836425781
            ],
            "min": [
                -35.00960159301758,
                -33.73889923095703
            ],
            "type": "VEC2"
        },
        {
            "bufferView": 2,
            "byteOffset": 2256,
            "componentType": 5126,
            "count": 282,
            "max": [
                1.0,
                1.0
            ],
            "min": [
                0.0,
                0.0
            ],
            "type": "VEC2"
        }
    ],
    "materials": [
        {
            "pbrMetallicRoughness": {
                "baseColorFactor": [
                    0.47058799862861636,
                    0.47058799862861636,
                    0.47058799862861636,
                    1.0
                ],
                "metallicFactor": 0.0
            },
            "extensions": {
                "KHR_materials_pbrSpecularGlossiness": {
                    "diffuseFactor": [
                        0.47058799862861636,
                        0.47058799862861636,
                        0.47058799862861636,
                        1.0
                    ]
                }
            },
            "name": "Grass-fx"
        }
    ],
    "bufferViews": [
        {
            "buffer": 0,
            "byteOffset": 11280,
            "byteLength": 660,
            "target": 34963
        },
        {
            "buffer": 0,
            "byteOffset": 0,
            "byteLength": 6768,
            "byteStride": 12,
            "target": 34962
        },
        {
            "buffer": 0,
            "byteOffset": 6768,
            "byteLength": 4512,
            "byteStride": 8,
            "target": 34962
        }
    ],
    "buffers": [
        {
            "byteLength": 11940,
            "uri": "data:application/octet-stream;base64,"
        }
    ],
    "extensionsUsed": [
        "KHR_materials_pbrSpecularGlossiness"
    ]
}
